<svg width="48" height="48" viewBox="0 0 48 48" fill="none" xmlns="http://www.w3.org/2000/svg">
<path fill-rule="evenodd" clip-rule="evenodd" d="M23.6 47.2C36.6339 47.2 47.2 36.6339 47.2 23.6C47.2 10.5661 36.6339 0 23.6 0C10.5661 0 0 10.5661 0 23.6C0 36.6339 10.5661 47.2 23.6 47.2Z" fill="#FF0202"/>
<path fill-rule="evenodd" clip-rule="evenodd" d="M14.7565 16.7523C13.6309 17.8768 12.9989 19.4029 13 20.994V27.006C13 30.305 15.687 33 19 33H33V20.994C33 17.695 30.313 15 27 15H19C17.4089 14.9974 15.8822 15.6278 14.7565 16.7523ZM31 20.994V31H19C16.7941 30.9978 15.0055 29.2119 15 27.006V20.994C14.9989 19.9334 15.4202 18.9159 16.1708 18.1665C16.9213 17.4171 17.9394 16.9973 19 17H27C29.2059 17.0022 30.9945 18.7881 31 20.994ZM25 23H27V25H25V23ZM21 23H19V25H21V23Z" fill="white"/>
</svg>
